<?xml version="1.0" encoding="UTF-8" standalone="no"?>
<svg
   viewBox="0 0 288.22146 72.985731"
   version="1.1"
   id="svg20"
   sodipodi:docname="triqs_logo.svg"
   width="288.22147"
   height="72.985733"
   inkscape:version="1.2 (dc2aedaf03, 2022-05-15)"
   inkscape:export-filename="triqs_logo.png"
   inkscape:export-xdpi="600"
   inkscape:export-ydpi="600"
   xmlns:inkscape="http://www.inkscape.org/namespaces/inkscape"
   xmlns:sodipodi="http://sodipodi.sourceforge.net/DTD/sodipodi-0.dtd"
   xmlns="http://www.w3.org/2000/svg"
   xmlns:svg="http://www.w3.org/2000/svg">
  <sodipodi:namedview
     id="namedview22"
     pagecolor="#ffffff"
     bordercolor="#111111"
     borderopacity="1"
     inkscape:showpageshadow="0"
     inkscape:pageopacity="0"
     inkscape:pagecheckerboard="1"
     inkscape:deskcolor="#d1d1d1"
     showgrid="false"
     inkscape:zoom="15.037247"
     inkscape:cx="34.946556"
     inkscape:cy="32.219993"
     inkscape:window-width="2512"
     inkscape:window-height="1403"
     inkscape:window-x="48"
     inkscape:window-y="0"
     inkscape:window-maximized="1"
     inkscape:current-layer="Layer_1-2" />
  <defs
     id="defs4">
    <style
       id="style2">.cls-1{fill:#1067bf;}</style>
  </defs>
  <g
     id="Layer_2"
     data-name="Layer 2"
     transform="translate(3.5920332,7.4819186)">
    <g
       id="Layer_1-2"
       data-name="Layer 1">
      <path
         d="m 97.69,49.43 h -7 V 12.81 H 78.21 v -6 h 32 v 6 H 97.69 Z"
         id="path6" />
      <path
         d="m 132.66,32.42 v 17 h -7 V 6.84 h 12 q 8.25,0 12.21,3.09 3.96,3.09 4,9.32 0,8 -8.27,11.33 l 12,18.85 h -7.92 l -10.2,-17 z m 0,-5.77 h 4.83 q 4.86,0 7,-1.81 a 6.53,6.53 0 0 0 2.18,-5.36 q 0,-3.6 -2.35,-5.18 -2.35,-1.58 -7.11,-1.57 h -4.6 z"
         id="path8" />
      <path
         d="M 172.77,49.43 V 6.84 h 7 v 42.59 z"
         id="path10" />
      <path
         d="m 237.74,28.08 a 26.51,26.51 0 0 1 -3,13.05 16.14,16.14 0 0 1 -8.61,7.45 l 10.2,11 H 227 L 219,50 h -1.14 q -9.65,0 -14.81,-5.72 -5.16,-5.72 -5.22,-16.28 0,-10.55 5.2,-16.2 5.2,-5.65 14.84,-5.65 9.49,0 14.68,5.74 5.19,5.74 5.19,16.19 z m -32.51,0 q 0,7.86 3.17,11.92 3.17,4.06 9.41,4.07 6.21,0 9.37,-4 3.16,-4 3.16,-12 0,-7.84 -3.13,-11.89 -3.13,-4.05 -9.34,-4.05 -6.26,0 -9.45,4.05 -3.19,4.05 -3.19,11.9 z"
         id="path12" />
      <path
         d="m 280.39,37.86 a 10.73,10.73 0 0 1 -4.11,8.92 Q 272.17,50 265,50 a 27.13,27.13 0 0 1 -11.83,-2.24 v -6.58 a 31.68,31.68 0 0 0 6.19,2.16 26,26 0 0 0 6.11,0.79 c 2.75,0 4.79,-0.53 6.1,-1.58 a 5.11,5.11 0 0 0 2,-4.22 5.32,5.32 0 0 0 -1.81,-4 Q 269.96,32.67 264.3,30.4 258.4,28 256,25 a 11.42,11.42 0 0 1 -2.39,-7.28 10.18,10.18 0 0 1 3.79,-8.39 q 3.78,-3.06 10.16,-3.06 a 29.83,29.83 0 0 1 12.18,2.68 l -2.22,5.68 a 26.6,26.6 0 0 0 -10.12,-2.43 7.79,7.79 0 0 0 -5.13,1.47 4.85,4.85 0 0 0 -1.75,3.89 5.53,5.53 0 0 0 0.7,2.84 7.24,7.24 0 0 0 2.3,2.23 39.21,39.21 0 0 0 5.77,2.77 31.42,31.42 0 0 1 6.88,3.6 10.76,10.76 0 0 1 3.2,3.81 11.49,11.49 0 0 1 1.02,5.05 z"
         id="path14" />
      <path
         class="cls-1"
         d="m 55.21,25.93 a 4.72,4.72 0 0 0 -3.37,-2.14 c 2.92,-3.58 3.84,-6.56 2.66,-8.67 -1.44,-2.55 -5.34,-3 -10.39,-2 A 23.17,23.17 0 0 0 16.3,8.39 L 11.61,0.63 A 1.3043485,1.3043485 0 1 0 9.39,2 l 4.68,7.75 A 23.25,23.25 0 0 0 4.56,23.44 l -0.31,0.3 c -3.72,3.71 -5.01,6.66 -3.83,8.75 a 4.33,4.33 0 0 0 3.67,1.93 H 4.2 a 1.28,1.28 0 0 0 0.34,-0.07 c 0.08,0.37 0.17,0.73 0.28,1.09 -3.18,3.63 -4.63,7 -3.26,9.43 1,1.86 4,2.6 7,2.6 a 18.78,18.78 0 0 0 2.38,-0.15 l 1.68,-0.24 A 23.21,23.21 0 0 0 38,49.47 l 1.82,3 -2.7,1.59 5.53,5 5.52,5 -1.73,-7.26 -1.73,-7.27 -2.65,1.57 -1.84,-3 a 23.32,23.32 0 0 0 8.16,-9.87 1.17,1.17 0 0 0 0.28,-0.17 L 52,35 c 4.2,-4.74 4.06,-7.55 3.21,-9.07 z M 25.3,23.32 A 73.64,73.64 0 0 1 43.17,16 a 20.59,20.59 0 0 1 3.91,7.77 c -5,0.69 -11.46,3.16 -17.62,6.46 z M 6.47,29 a 20.91,20.91 0 0 1 0.42,-4.14 62.55,62.55 0 0 1 11.36,-8.15 l 3.45,5.72 A 79.3,79.3 0 0 0 6.93,33.25 20.3,20.3 0 0 1 6.47,29 Z M 52.23,16.39 c 0.51,0.89 0,3 -2.77,6.2 A 23.09,23.09 0 0 0 46,15.46 c 3.42,-0.46 5.64,-0.13 6.23,0.93 z M 27.12,8.3 a 20.52,20.52 0 0 1 14,5.53 A 82,82 0 0 0 24,21.1 l -3.43,-5.69 c 0.5,-0.27 1,-0.55 1.49,-0.8 A 1.2947007,1.2947007 0 1 0 20.89,12.3 c -0.55,0.28 -1.11,0.59 -1.66,0.89 L 17.68,10.63 A 20.48,20.48 0 0 1 27.12,8.3 Z m -11.7,3.7 1.49,2.48 A 74.57,74.57 0 0 0 8.54,20 20.77,20.77 0 0 1 15.42,12 Z M 2.68,31.22 c -0.2,-0.36 -0.05,-1.4 1.24,-3.17 0,0.3 0,0.6 0,0.9 A 24.21,24.21 0 0 0 4.11,31.8 1.94,1.94 0 0 1 2.68,31.22 Z m 1.14,12.39 c -0.56,-1 0.14,-2.88 2,-5.31 a 23.2,23.2 0 0 0 4.3,6.5 C 6.66,45.16 4.25,44.36 3.82,43.61 Z m 23.3,6 A 20.67,20.67 0 0 1 7.77,36.1 71.24,71.24 0 0 1 23,24.6 l 4.15,6.89 a 76,76 0 0 0 -8.28,5.51 1.29,1.29 0 1 0 1.58,2 73,73 0 0 1 8.08,-5.34 l 8.16,13.52 A 20.48,20.48 0 0 1 27.12,49.6 Z M 38.9,45.88 30.8,32.45 c 6.92,-3.7 12.79,-5.6 16.78,-6.13 A 20.31,20.31 0 0 1 38.9,45.88 Z m 11.23,-12.72 -0.2,0.18 A 22.69,22.69 0 0 0 50.36,29 23.18,23.18 0 0 0 50.18,26.22 c 1.45,0.06 2.42,0.41 2.77,1 0.47,0.78 -0.05,2.84 -2.82,5.94 z"
         id="path16"
         style="fill:#537eba;fill-opacity:1" />
    </g>
  </g>
</svg>
