<svg xmlns="http://www.w3.org/2000/svg" viewBox="0 0 363.76 83.19"><defs><style>.cls-1{fill:#fff;}</style></defs><g id="Layer_2" data-name="Layer 2"><g id="Layer_1-2" data-name="Layer 1"><path class="cls-1" d="M126.74,64.13h-9V16.62H101.46V8.87H143v7.75H126.74Z"/><path class="cls-1" d="M172.1,42.06V64.13h-9V8.87h15.61q10.69,0,15.83,4T199.65,25q0,10.32-10.73,14.71l15.61,24.45H194.25L181,42.06Zm0-7.49h6.27q6.31,0,9.15-2.34t2.83-6.95q0-4.7-3.06-6.73t-9.22-2h-6Z"/><path class="cls-1" d="M224.15,64.13V8.87h9V64.13Z"/><path class="cls-1" d="M308.43,36.42q0,10.06-3.84,16.94A21,21,0,0,1,293.43,63l13.22,14.25H294.48l-10.43-12.4h-1.47q-12.51,0-19.22-7.42t-6.71-21.11q0-13.68,6.75-21T282.66,8q12.31,0,19,7.44T308.43,36.42Zm-42.18,0q0,10.21,4.12,15.48t12.21,5.27q8.06,0,12.15-5.21t4.1-15.54q0-10.16-4.06-15.41t-12.11-5.26q-8.13,0-12.27,5.26T266.25,36.42Z"/><path class="cls-1" d="M363.76,49.12a13.89,13.89,0,0,1-5.33,11.57q-5.32,4.19-14.7,4.19T328.39,62V53.43a41.41,41.41,0,0,0,8,2.8,34.08,34.08,0,0,0,7.92,1c3.58,0,6.21-.68,7.92-2a6.66,6.66,0,0,0,2.55-5.48,6.86,6.86,0,0,0-2.35-5.26q-2.34-2.14-9.67-5.1-7.56-3.06-10.66-7a14.83,14.83,0,0,1-3.1-9.45A13.22,13.22,0,0,1,334,12.05q4.91-4,13.18-4a38.7,38.7,0,0,1,15.8,3.48l-2.87,7.37a34.44,34.44,0,0,0-13.15-3.1c-2.93,0-5.14.64-6.65,1.91a6.23,6.23,0,0,0-2.27,5,7.06,7.06,0,0,0,.91,3.69,9.28,9.28,0,0,0,3,2.89A51.93,51.93,0,0,0,349.36,33a41,41,0,0,1,8.92,4.72,13.86,13.86,0,0,1,4.16,4.95A14.93,14.93,0,0,1,363.76,49.12Z"/><path class="cls-1" d="M71.62,33.64a6.07,6.07,0,0,0-4.37-2.77c3.79-4.65,5-8.51,3.45-11.26-1.86-3.3-6.92-3.85-13.48-2.58a30.06,30.06,0,0,0-36.08-6.14L15.07.81a1.69,1.69,0,0,0-2.89,1.74l6.07,10.06A30.19,30.19,0,0,0,5.92,30.41c-.13.13-.28.26-.4.39C.69,35.61-1,39.44.55,42.15c.82,1.46,2.42,2.3,4.75,2.51h.15a1.63,1.63,0,0,0,.44-.08c.11.47.22,1,.36,1.41C2.13,50.7.24,55.06,2,58.23c1.34,2.4,5.14,3.37,9.06,3.37a26.42,26.42,0,0,0,3.09-.19l2.18-.32a30.1,30.1,0,0,0,33,3.09l2.36,3.9-3.5,2.07,7.17,6.52,7.16,6.52-2.24-9.43-2.24-9.42-3.45,2-2.38-3.94A30.23,30.23,0,0,0,62.81,49.62a1.59,1.59,0,0,0,.35-.22l4.28-4C72.91,39.26,72.74,35.62,71.62,33.64Zm-38.8-3.38C42,25.23,50,22.18,56,20.75a26.7,26.7,0,0,1,5.07,10.09c-6.47.89-14.86,4.09-22.86,8.37ZM8.4,37.56a26.54,26.54,0,0,1,.54-5.38A82,82,0,0,1,23.68,21.61L28.16,29A102.18,102.18,0,0,0,9,43.14,27,27,0,0,1,8.4,37.56Zm59.37-16.3c.65,1.16,0,3.86-3.61,8a30.24,30.24,0,0,0-4.46-9.25C64.12,19.42,67,19.89,67.77,21.26ZM35.18,10.77a26.67,26.67,0,0,1,18.18,7.17,106.81,106.81,0,0,0-22.28,9.43L26.63,20c.65-.34,1.3-.71,1.94-1a1.69,1.69,0,0,0-1.52-3c-.71.36-1.44.77-2.16,1.16l-2-3.32A26.53,26.53,0,0,1,35.18,10.77ZM20,15.52l1.94,3.21A97,97,0,0,0,11.08,26,26.9,26.9,0,0,1,20,15.52ZM3.48,40.5c-.26-.46-.07-1.81,1.61-4.11,0,.39-.06.78-.06,1.17a30.12,30.12,0,0,0,.25,3.7A2.5,2.5,0,0,1,3.48,40.5ZM5,56.58c-.73-1.29.18-3.74,2.63-6.89a30.18,30.18,0,0,0,5.58,8.43C8.64,58.58,5.51,57.56,5,56.58Zm30.22,7.77A26.8,26.8,0,0,1,10.09,46.84c4.19-4.41,10.84-9.68,19.8-14.92l5.39,8.93A98.15,98.15,0,0,0,24.48,48a1.68,1.68,0,0,0,1,3,1.71,1.71,0,0,0,1-.34A94,94,0,0,1,37,43.73L47.59,61.28A26.6,26.6,0,0,1,35.18,64.35Zm15.29-4.82L40,42.1c9-4.8,16.6-7.27,21.77-8A27.66,27.66,0,0,1,62,37.56,26.77,26.77,0,0,1,50.47,59.53ZM65,43l-.25.23a30.41,30.41,0,0,0,.55-5.69A30.82,30.82,0,0,0,65.1,34c1.88.08,3.14.54,3.59,1.34C69.3,36.37,68.63,39,65,43Z"/></g></g></svg>