<svg xmlns="http://www.w3.org/2000/svg" viewBox="0 0 114.29 131.6"><defs><style>.cls-1{fill:#1067bf;}</style></defs><g id="Layer_2" data-name="Layer 2"><g id="Layer_1-2" data-name="Layer 1"><path class="cls-1" d="M113.3,53.21c-1.32-2.35-3.75-3.73-6.91-4.38,6-7.34,7.9-13.46,5.45-17.8C108.91,25.8,100.9,24.94,90.53,27a47.56,47.56,0,0,0-57.08-9.73L23.83,1.28A2.67,2.67,0,0,0,19.27,4L28.87,20A47.76,47.76,0,0,0,9.36,48.11l-.63.61C1.09,56.34-1.55,62.39.87,66.68c1.29,2.31,3.82,3.64,7.52,4h.24a2.56,2.56,0,0,0,.68-.13c.18.74.36,1.49.57,2.22C3.38,80.2.39,87.1,3.2,92.11c2.14,3.81,8.14,5.34,14.34,5.34a39.63,39.63,0,0,0,4.89-.31l3.44-.5a47.59,47.59,0,0,0,52.19,4.88l3.73,6.19L76.25,111l11.34,10.32L98.92,131.6l-3.54-14.91-3.55-14.91L86.37,105l-3.76-6.24A47.86,47.86,0,0,0,99.36,78.5a2.75,2.75,0,0,0,.56-.35l6.76-6.38C115.34,62.11,115.06,56.35,113.3,53.21ZM51.92,47.86c14.44-8,27.1-12.77,36.69-15a42.26,42.26,0,0,1,8,16C86.39,50.2,73.11,55.26,60.47,62ZM13.28,59.42a42.64,42.64,0,0,1,.86-8.51A129.15,129.15,0,0,1,37.46,34.19l7.08,11.75C32.88,52.77,22,60.63,14.22,68.24A42.1,42.1,0,0,1,13.28,59.42ZM107.2,33.64c1,1.82,0,6.1-5.7,12.72a47.38,47.38,0,0,0-7.06-14.64C101.43,30.72,106,31.46,107.2,33.64ZM55.66,17A42.21,42.21,0,0,1,84.42,28.38C73.62,31.33,61.1,36.72,49.17,43.3l-7-11.67c1-.55,2.06-1.13,3.07-1.64a2.66,2.66,0,1,0-2.41-4.75c-1.12.57-2.27,1.21-3.41,1.82l-3.17-5.25A42.06,42.06,0,0,1,55.66,17Zm-24,7.5,3.07,5.09A151.53,151.53,0,0,0,17.53,41.05,42.57,42.57,0,0,1,31.64,24.54ZM5.51,64.07c-.41-.73-.12-2.87,2.54-6.5C8,58.19,8,58.79,8,59.42a49.12,49.12,0,0,0,.39,5.85C6.89,65.08,5.83,64.65,5.51,64.07ZM7.84,89.51c-1.14-2,.29-5.92,4.17-10.9A47.81,47.81,0,0,0,20.84,92C13.67,92.68,8.71,91.05,7.84,89.51Zm47.82,12.28A42.39,42.39,0,0,1,16,74.09c6.64-7,17.15-15.31,31.33-23.59l8.52,14.13a154.61,154.61,0,0,0-17.08,11.3,2.65,2.65,0,0,0-.49,3.73,2.66,2.66,0,0,0,3.73.49,149.51,149.51,0,0,1,16.59-11L75.29,96.94A42.15,42.15,0,0,1,55.66,101.79Zm24.18-7.62L63.22,66.6C77.41,59,89.47,55.1,97.65,54A41.86,41.86,0,0,1,79.84,94.17Zm23-26.12-.4.37a47.6,47.6,0,0,0,.88-9,46.66,46.66,0,0,0-.38-5.71c3,.12,5,.85,5.68,2.11C109.63,57.53,108.57,61.69,102.88,68.05Z"/></g></g></svg>